<?xml version="1.0" encoding="UTF-8" standalone="no"?>
<svg
   height="1749.061"
   viewBox="-48.583132 -136.22853 610.0996 552.09711"
   width="1734.231"
   version="1.1"
   id="svg10"
   sodipodi:docname="icon.svg"
   inkscape:version="1.4.2 (ebf0e94, 2025-05-08)"
   xmlns:inkscape="http://www.inkscape.org/namespaces/inkscape"
   xmlns:sodipodi="http://sodipodi.sourceforge.net/DTD/sodipodi-0.dtd"
   xmlns="http://www.w3.org/2000/svg"
   xmlns:svg="http://www.w3.org/2000/svg">
  <defs
     id="defs10" />
  <sodipodi:namedview
     id="namedview10"
     pagecolor="#ffffff"
     bordercolor="#cccccc"
     borderopacity="1"
     inkscape:showpageshadow="0"
     inkscape:pageopacity="1"
     inkscape:pagecheckerboard="0"
     inkscape:deskcolor="#d1d1d1"
     showgrid="false"
     inkscape:zoom="0.33238173"
     inkscape:cx="1111.6736"
     inkscape:cy="711.53129"
     inkscape:window-width="1920"
     inkscape:window-height="1017"
     inkscape:window-x="-8"
     inkscape:window-y="-8"
     inkscape:window-maximized="1"
     inkscape:current-layer="svg10" />
  <path
     d="M 115.57567,184.76983 H -42.714356 c 0.03,0.78 0.05,1.55 0.09,2.32 0.06,1.49 0.17,2.97 0.26,4.46 0.04,0.64 0.07,1.28 0.12,1.91 0.12,1.72 0.27,3.44 0.43,5.15 0.04,0.39 0.07,0.78 0.11,1.15 0.18,1.91 0.39,3.82 0.61,5.71 0.01,0.18 0.03,0.37 0.06,0.55 0.25,2.04 0.51,4.09 0.81,6.12 0,0.03 0,0.06 0.01,0.08 a 266.05,266.05 0 0 0 8.18,37.4 c 0.02,0.05 0.04,0.1 0.05,0.15 0.57,1.94 1.17,3.86 1.78,5.77 0.04,0.11 0.08,0.23 0.11,0.34 0.03,0.11 0.07,0.22 0.11,0.34 0.56,1.73 1.15,3.45 1.74,5.18 0.15,0.43 0.3,0.87 0.46,1.31 0.53,1.49 1.07,2.98 1.63,4.48 0.26,0.67 0.51,1.34 0.76,2.02 0.49,1.24 0.96,2.47 1.45,3.7 0.37,0.93 0.75,1.86 1.14,2.78 0.4,0.97 0.8,1.92 1.21,2.89 0.5,1.18 1.03,2.35 1.55,3.53 0.31,0.7 0.63,1.39 0.94,2.09 0.64,1.41 1.3,2.82 1.97,4.22 0.22,0.45 0.43,0.9 0.65,1.34 0.78,1.62 1.57,3.21 2.37,4.8 0.14,0.24 0.25,0.49 0.38,0.73 0.9,1.76 1.82,3.51 2.77,5.25 0.04,0.08 0.09,0.15 0.12,0.24 0.2,0.36 0.42,0.71 0.62,1.07 l 135.190026,-81.43 0.5,-0.3 c -5.33,-11.24 -8.65,-23.2 -9.89,-35.35 z"
     fill="#93d500"
     id="path1" />
  <path
     d="m 154.48567,257.43983 -0.38,0.38 -111.500026,111.49 c 0.57,0.53 1.14,1.08 1.73,1.59 1.04,0.95 2.1,1.88 3.15,2.81 0.55,0.48 1.08,0.96 1.63,1.44 1.26,1.09 2.54,2.15 3.81,3.22 0.35,0.29 0.68,0.57 1.03,0.86 a 255.576,255.576 0 0 0 4.91,3.94 c 1.58,1.25 3.17,2.46 4.79,3.68 0.07,0.04 0.12,0.08 0.18,0.13 a 266.48,266.48 0 0 0 20.86,14.1 c 0.24,0.16 0.49,0.3 0.74,0.46 1.37,0.81 2.73,1.62 4.11,2.42 l 2.52,1.44 c 0.8,0.46 1.59,0.9 2.39,1.34 1.45,0.79 2.9,1.58 4.36,2.35 0.2,0.11 0.4,0.22 0.61,0.32 4.050016,2.12 8.170026,4.09 12.330026,5.99 l 3.96,-9.61 56.08,-136.17 0.2,-0.5 c -6.12,-3.28 -11.99,-7.16 -17.51,-11.68 z"
     fill="#4d5a31"
     id="path2" />
  <path
     d="m 142.87567,246.32983 a 95.492,95.492 0 0 1 -3.48,-4.1 c -1,-1.23 -1.96,-2.47 -2.89,-3.73 -1.07,-1.44 -2.11,-2.9 -3.1,-4.38 -0.99,-1.49 -1.97,-2.99 -2.89,-4.51 l -135.3600284,81.53 c 2.0800003,3.46 4.24000031,6.82 6.4600003,10.14 0.07,0.12 0.14,0.24 0.22,0.35 0.02,0.05 0.05,0.08 0.08,0.13 0.07,0.1 0.14,0.22 0.21,0.33 0.01,0.01 0.02,0.02 0.02,0.04 0.18,0.26 0.36,0.52 0.54,0.79 0.01,0.01 0.02,0.03 0.04,0.05 0.02,0.02 0.01,0.01 0.01,0.02 2.35,3.47 4.77,6.89 7.26,10.23 0.05,0.07 0.1100001,0.14 0.1600001,0.21 0.06,0.07 0.11,0.14 0.16,0.21 1.09,1.43 2.170001,2.86 3.290001,4.28 0.15,0.19 0.29,0.37 0.45,0.55 1.140001,1.47 2.310001,2.92 3.500001,4.35 0.28,0.34 0.57,0.68 0.85,1.03 1.07,1.28 2.14,2.55 3.23,3.81 0.47,0.54 0.95,1.09 1.43,1.62 0.93,1.06 1.85,2.12 2.8,3.16 0.52,0.57 1.06,1.15 1.59,1.72 0.24,0.27 0.48,0.52 0.73,0.79 0.69,0.75 1.38,1.5 2.08,2.24 0.28,0.29 0.58,0.58 0.86,0.88 1.23,1.28 2.48,2.57 3.74,3.83 l 111.670026,-111.65 c -1.28,-1.28 -2.48,-2.6 -3.66,-3.92 z"
     fill="#6ba43a"
     id="path3" />
  <path
     d="m 290.88567,257.37983 c -1.23,0.99 -2.47,1.96 -3.73,2.89 l 0.27,0.47 81.42,135.13 c 3.77,-2.46 7.5,-5 11.14,-7.67 7.88,-5.81 15.5,-12.11 22.85,-18.89 l -111.51,-111.49 z"
     fill="#4d5a31"
     id="path4" />
  <path
     d="m 357.01567,396.97983 -2.76,-4.59 -76,-126.13 c -1.54,0.92 -3.11,1.76 -4.68,2.6 -1.59,0.86 -3.18,1.65 -4.8,2.42 -14.6,6.92 -30.4,10.46 -46.23,10.46 -10.37,0 -20.73,-1.5 -30.75,-4.49 -1.71,-0.51 -3.38,-1.18 -5.06,-1.78 -1.69,-0.59 -3.4,-1.11 -5.06,-1.79 l -56.04,136.08 -2.19,5.33 -1.88,4.57 -0.01,0.02 c 0.14,0.06 0.29,0.11 0.43,0.17 0.16,0.06 0.31,0.11 0.46,0.18 h 0.02 c 0.04,0.02 0.08,0.03 0.11,0.04 1.32,0.55 2.65,1.01 3.98,1.53 1.67,0.65 3.33,1.31 5,1.92 0.86,0.31 1.7,0.67 2.55,0.97 h 0.01 a 267.42,267.42 0 0 0 54.19,12.97 c 0.73,0.09 1.44,0.19 2.17,0.29 0.75,0.09 1.51,0.16 2.27,0.25 1.42,0.16 2.84,0.32 4.27,0.46 l 1.06,0.09 c 1.75,0.17 3.5,0.32 5.24,0.44 0.6,0.05 1.2,0.07 1.79,0.12 1.53,0.1 3.06,0.19 4.59,0.26 0.94,0.06 1.88,0.08 2.82,0.12 1.22,0.04 2.43,0.09 3.65,0.13 1.75,0.04 3.52,0.05 5.28,0.06 0.42,0 0.83,0.01 1.25,0.02 14.75,0 29.5,-1.23 44.09,-3.68 0.24,-0.04 0.49,-0.08 0.74,-0.11 1.54,-0.27 3.08,-0.56 4.62,-0.84 0.88,-0.17 1.77,-0.34 2.63,-0.51 0.9,-0.19 1.81,-0.37 2.71,-0.57 1.5,-0.31 3,-0.64 4.51,-0.99 0.27,-0.06 0.54,-0.11 0.81,-0.19 22.18,-5.16 43.6,-13.16 63.72,-23.75 v -0.01 c 1.32,-0.69 2.61,-1.48 3.92,-2.2 1.56,-0.85 3.11,-1.74 4.67,-2.63 1.07,-0.61 2.16,-1.18 3.23,-1.82 0.01,-0.01 0.02,-0.02 0.03,-0.02 h 0.01 c 0.02,-0.01 0.03,-0.02 0.05,-0.03 l 0.02,-0.02 -0.2,-0.33 0.2,0.33 c 0.01,0 0.02,-0.01 0.03,-0.01 0.02,-0.01 0.03,-0.02 0.05,-0.03 0.06,-0.04 0.12,-0.07 0.18,-0.11 0.34,-0.21 0.69,-0.41 1.04,-0.62 z m -202.47,-306.22009 c 1.23,-1 2.48,-1.96 3.73,-2.9 l -0.27,-0.46 -81.420026,-135.14 c -3.78,2.47 -7.51,5.02 -11.16,7.69 -7.87,5.8 -15.5,12.09 -22.83,18.86 l 111.510026,111.5 z"
     fill="#93d500"
     id="path5" />
  <path
     d="m 34.865644,-13.76026 c -1.27,1.27 -2.47,2.58 -3.71,3.8599997 -1.23,1.2899997 -2.49,2.5699991 -3.7,3.8699985 A 266.156,266.156 0 0 0 4.8956419,21.929736 c -0.33,0.45 -0.65,0.930001 -0.98,1.390001 -0.76,1.12 -1.52,2.230001 -2.26,3.350001 -0.77999997,1.160001 -1.54999998,2.340001 -2.29999999,3.510002 -0.28,0.43 -0.56000001,0.87 -0.83000001,1.3 -25.6499979,40.23 -39.3899979,85.86007 -41.2399979,131.87009 -0.07,1.79 -0.11,3.58 -0.15,5.36 -0.03,1.78 -0.09,3.57 -0.09,5.35 H 114.97567 c 0,-1.78 0.16,-3.56 0.26,-5.35 0.09,-1.79 0.11,-3.58 0.29,-5.36 2.04,-20.56 9.98,-40.64 23.82,-57.50007 1.12,-1.37 2.39,-2.66001 3.6,-3.98001 1.19,-1.33001 2.31,-2.70001 3.59,-3.98001 z m 325.850026,-39.2 c -0.21,-0.13 -0.44,-0.26 -0.65,-0.39 -1.39,-0.85 -2.79,-1.67 -4.2,-2.49 -0.81,-0.47 -1.63,-0.93 -2.44,-1.39 -0.83,-0.46 -1.64,-0.92 -2.47,-1.37 a 901.4,901.4 0 0 0 -4.29,-2.32 c -0.23,-0.11 -0.45,-0.23 -0.68,-0.35 -9.26,-4.84 -18.77,-9.1 -28.48,-12.8 -0.25,-0.1 -0.5,-0.2 -0.75,-0.29 -2.12,-0.79 -4.24,-1.58 -6.38,-2.32 a 267.084,267.084 0 0 0 -53.21,-12.629958 l -2.22,-0.299997 c -0.75,-0.09 -1.49,-0.16 -2.23,-0.24 -1.43,-0.17 -2.85,-0.329997 -4.29,-0.469997 -0.39,-0.04 -0.79,-0.06 -1.2,-0.11 -1.69,-0.15 -3.4,-0.3 -5.1,-0.429997 l -1.99,-0.12 c -1.45,-0.09 -2.93,-0.2 -4.38,-0.26 -0.78,-0.04 -1.56,-0.07 -2.33,-0.09 V 66.95974 c 8.12,0.84 16.17,2.57 23.98,5.22 l 116.51,-116.49 c -4.33,-3 -8.7,-5.92 -13.2,-8.65 z"
     fill="#4d5a31"
     id="path6" />
  <path
     d="m 217.36567,-91.460209 c -1.79,0.04 -3.58,0.04 -5.36,0.11 -11.17,0.45 -22.32,1.589994 -33.38,3.449985 -0.24,0.04 -0.48,0.08 -0.73,0.12 -1.55,0.27 -3.09,0.549997 -4.63,0.839997 -0.87,0.17 -1.75,0.329997 -2.63,0.499997 -0.91,0.18 -1.81,0.37 -2.72,0.569997 -1.5,0.31 -3,0.64 -4.49,0.989997 -0.28,0.05 -0.55,0.12 -0.82,0.18 A 267.465,267.465 0 0 0 98.875644,-60.94026 c -1.31,0.7 -2.59,1.49 -3.9,2.2 -1.56,0.86 -3.12,1.74 -4.67,2.63 -1.15,0.67 -2.32,1.28 -3.47,1.96 -0.01,0.01 -0.03,0.02 -0.04,0.02 -0.08,0.05 -0.16,0.1 -0.24,0.14 -0.3,0.19 -0.61,0.34 -0.91,0.52 l 0.01,0.02 2.77,4.59 78.750026,130.73 c 1.54,-0.92 3.11,-1.77 4.68,-2.61 1.58,-0.85 3.18,-1.65 4.79,-2.41 a 107.25,107.25 0 0 1 35.36,-9.91 c 1.78,-0.18 3.56,-0.33 5.35,-0.42 1.78,-0.09 3.57,-0.18 5.36,-0.18 V -91.570206 c -1.79,0 -3.57,0.08 -5.35,0.109997 z"
     fill="#6ba43a"
     id="path7" />
  <path
     d="m 488.05567,161.00983 c -0.08,-1.42 -0.16,-2.83 -0.26,-4.26 a 75.4,75.4 0 0 0 -0.14,-2.12 c -0.11,-1.67 -0.25,-3.34 -0.41,-5.01 -0.03,-0.43 -0.07,-0.86 -0.11,-1.29 -0.18,-1.87 -0.38,-3.73 -0.6,-5.59 -0.02,-0.15 -0.03,-0.3 -0.05,-0.45 l -0.03,-0.21 c -0.24,-2.01 -0.51,-4.02 -0.79,-6.02 l -0.03,-0.19 a 266.454,266.454 0 0 0 -8.16,-37.33009 c -0.03,-0.09 -0.05,-0.16 -0.08,-0.24 -0.57,-1.91 -1.16,-3.8 -1.75,-5.69 -0.09,-0.25 -0.17,-0.5 -0.25,-0.75 -0.56,-1.71 -1.13,-3.41 -1.72,-5.11 l -0.48,-1.38 c -0.52,-1.47 -1.06,-2.94 -1.6,-4.41 -0.27,-0.7 -0.53,-1.4 -0.81,-2.09 -0.46,-1.22 -0.93,-2.43 -1.42,-3.63 -0.38,-0.97 -0.77,-1.92 -1.16,-2.86 -0.39,-0.95 -0.79,-1.88 -1.18,-2.82 -0.52,-1.2 -1.05,-2.4 -1.58,-3.59 -0.3,-0.67 -0.6,-1.35 -0.91,-2.03 -0.65,-1.42 -1.32,-2.85 -1.99,-4.27 -0.21,-0.42 -0.42,-0.86 -0.63,-1.29 -0.78,-1.62 -1.58,-3.25 -2.4,-4.85 -0.11,-0.22 -0.23,-0.45 -0.34,-0.67 -0.91,-1.77 -1.85,-3.55 -2.79,-5.3 -0.04,-0.06 -0.07,-0.13 -0.11,-0.19 a 266.99,266.99 0 0 0 -15.11,-24.520003 l -116.54,116.540093 c 2.65,7.81 4.37,15.86 5.21,23.97 h 158.32 c -0.04,-0.79 -0.06,-1.58 -0.1,-2.35 z"
     fill="#4d5a31"
     id="path8" />
  <path
     d="m 330.45567,174.05983 c 0,1.79 -0.17,3.57 -0.26,5.36 -0.09,1.79 -0.12,3.58 -0.3,5.35 -2.04,20.57 -9.97,40.65 -23.81,57.52 -1.12,1.37 -2.39,2.65 -3.6,3.98 -1.2,1.32 -2.31,2.69 -3.59,3.97 l 111.67,111.65 c 1.27,-1.27 2.46,-2.58 3.7,-3.87 1.24,-1.29 2.5,-2.56 3.7,-3.87 8.26,-8.95 15.82,-18.31 22.62,-28.04 0.28,-0.39 0.53,-0.77 0.8,-1.15 0.83,-1.19 1.63,-2.4 2.45,-3.6 0.71,-1.08 1.42,-2.15 2.11,-3.24 0.35,-0.52 0.69,-1.06 1.02,-1.58 25.61,-40.21 39.32,-85.79 41.16,-131.77 0.07,-1.78 0.11,-3.57 0.14,-5.36 0.04,-1.78 0.09,-3.56 0.09,-5.35 z"
     fill="#6ba43a"
     id="path9" />
  <path
     d="m 535.27567,-138.47017 c -28.89,-28.89 -75.73,-28.89 -104.62,0 -23.05,23.04 -27.66,57.489916 -13.93,85.14991 l -161.16,161.15003 c -27.66,-13.72003 -62.12,-9.12003 -85.17,13.92006 -28.89,28.89 -28.88,75.73 0,104.62 28.9,28.89 75.75,28.88 104.64,0 23.05,-23.05 27.65,-57.5 13.92,-85.16 l 161.16,-161.14009 c 27.67,13.7199982 62.11,9.12 85.16,-13.93 28.89,-28.88 28.89,-75.71991 0,-104.60991 z"
     fill="#424143"
     id="path10" />
</svg>
